<?xml version="1.0" standalone="no"?><!DOCTYPE svg PUBLIC "-//W3C//DTD SVG 1.1//EN" "http://www.w3.org/Graphics/SVG/1.1/DTD/svg11.dtd"><svg t="1585281067873" class="icon" viewBox="0 0 1024 1024" version="1.1" xmlns="http://www.w3.org/2000/svg" p-id="4777" xmlns:xlink="http://www.w3.org/1999/xlink" width="21" height="21"><defs><style type="text/css"></style></defs><path d="M106.496 880.896h802.56v53.504H106.496z" p-id="4778" fill="#ffffff"></path><path d="M61.44 849.92h112.64v112.64H61.44V849.92z m788.48 0h112.64v112.64H849.92V849.92zM802.048 61.44L61.44 573.952 221.952 804.864 962.56 292.352 802.048 61.44zM275.456 734.464l-47.872-70.4 45.056-30.976L320.512 703.488l-45.056 30.976z m92.928-64.768L286.72 554.24l45.056-30.976 78.848 115.456-42.24 30.976z m92.928-61.952l-47.872-70.4 45.056-30.976 47.872 70.4-45.056 30.976z m92.928-64.768L472.576 427.52l45.056-30.976L596.48 512l-42.24 30.976z m90.112-64.768l-47.872-70.4 45.056-30.976 47.872 70.4-45.056 30.976zM737.28 413.44L658.432 297.984l45.056-30.976 78.848 115.456-45.056 30.976z m45.056-132.352l45.056-30.976 50.688 67.584-45.056 30.976-50.688-67.584z" p-id="4779" fill="#ffffff"></path></svg>
