<?xml version="1.0" standalone="no"?><!DOCTYPE svg PUBLIC "-//W3C//DTD SVG 1.1//EN" "http://www.w3.org/Graphics/SVG/1.1/DTD/svg11.dtd"><svg t="1585553089990" class="icon" viewBox="0 0 1024 1024" version="1.1" xmlns="http://www.w3.org/2000/svg" p-id="2268" xmlns:xlink="http://www.w3.org/1999/xlink" width="21" height="21"><defs><style type="text/css"></style></defs><path d="M884.364 535.273c-51.2 0-95.419 30.254-116.364 74.472L591.127 546.91c2.328-6.982 2.328-16.29 2.328-23.273 0-16.29-2.328-30.254-9.31-46.545l65.164-65.164c18.618 18.618 44.218 27.928 72.146 27.928 58.181 0 104.727-46.546 104.727-104.728S779.636 230.4 721.455 230.4s-104.728 46.545-104.728 104.727c0 13.964 2.328 25.6 6.982 37.237l-65.164 65.163c-23.272-25.6-55.854-41.89-93.09-41.89-4.655 0-11.637 0-16.291 2.327l-37.237-195.491c37.237-16.291 65.164-53.528 65.164-97.746C477.09 46.545 430.545 0 372.364 0S267.636 46.545 267.636 104.727c0 55.855 44.219 100.073 97.746 104.728l37.236 202.472c-30.254 16.291-51.2 44.218-60.509 76.8H242.036C230.4 435.2 183.855 395.637 128 395.637c-65.164 0-116.364 51.2-116.364 116.363S62.836 628.364 128 628.364c55.855 0 102.4-39.564 114.036-93.091h97.746c2.327 30.254 16.29 58.182 34.909 79.127l-76.8 74.473c-20.946-9.31-41.891-13.964-65.164-13.964-95.418 0-174.545 79.127-174.545 174.546S137.309 1024 232.727 1024s174.546-79.127 174.546-174.545c0-53.528-25.6-102.4-62.837-132.655l74.473-74.473c13.964 6.982 30.255 9.31 46.546 9.31 46.545 0 86.109-25.6 109.381-60.51l183.855 65.164v9.309c0 69.818 58.182 128 128 128s128-58.182 128-128c-2.327-72.145-60.51-130.327-130.327-130.327z" fill="#86c5ff" p-id="2269"></path></svg>
