<?xml version="1.0" standalone="no"?><!DOCTYPE svg PUBLIC "-//W3C//DTD SVG 1.1//EN" "http://www.w3.org/Graphics/SVG/1.1/DTD/svg11.dtd"><svg t="1585293607764" class="icon" viewBox="0 0 1024 1024" version="1.1" xmlns="http://www.w3.org/2000/svg" p-id="5421" width="21" height="21" xmlns:xlink="http://www.w3.org/1999/xlink"><defs><style type="text/css"></style></defs><path d="M974.878744 941.125501 751.28941 717.536166c63.947428-71.013357 103.193267-164.710342 103.193267-267.801279 0-221.344201-179.439812-400.824945-400.824945-400.824945-221.364667 0-400.825968 179.481767-400.825968 400.824945 0 221.385133 179.461301 400.825968 400.825968 400.825968 103.090936 0 196.786898-39.225373 267.800255-103.19429L945.047322 970.9559c3.810792 3.832282 9.084912 6.180769 14.915711 6.180769 11.659551 0 21.094434-9.435906 21.094434-21.096481C981.05849 950.230879 978.710003 944.957783 974.878744 941.125501M453.656709 808.389384c-198.063985 0-358.63403-160.590512-358.63403-358.654496S255.592724 91.101881 453.656709 91.101881c198.063985 0 358.63403 160.569022 358.63403 358.633007S651.720693 808.389384 453.656709 808.389384" p-id="5422" fill="#ffffff"></path></svg>